<?xml version="1.0" encoding="iso-8859-1"?>
<!-- Generator: Adobe Illustrator 19.0.0, SVG Export Plug-In . SVG Version: 6.00 Build 0)  -->
<svg version="1.1" id="Capa_1" xmlns="http://www.w3.org/2000/svg" xmlns:xlink="http://www.w3.org/1999/xlink" x="0px" y="0px"
	 viewBox="0 0 512 512" style="enable-background:new 0 0 512 512;" xml:space="preserve">
<g>
	<g transform="translate(1 1)">
		<path style="fill:#A4C2F7;" d="M16.067,24.6h477.867c4.713,0,8.533,3.821,8.533,8.533v460.8c0,4.713-3.821,8.533-8.533,8.533
			H16.067c-4.713,0-8.533-3.821-8.533-8.533v-460.8C7.533,28.421,11.354,24.6,16.067,24.6z"/>
		<g>
			<path style="fill:#E3E7F2;" d="M16.067,24.6h452.267c4.713,0,8.533,3.821,8.533,8.533v460.8c0,4.713-3.821,8.533-8.533,8.533
				H16.067c-4.713,0-8.533-3.821-8.533-8.533v-460.8C7.533,28.421,11.354,24.6,16.067,24.6z"/>
			<path style="fill:#E3E7F2;" d="M263.533,7.533h136.533v51.2c0,4.713-3.82,8.533-8.533,8.533H272.067
				c-4.713,0-8.533-3.821-8.533-8.533V7.533z"/>
			<path style="fill:#E3E7F2;" d="M434.2,7.533h34.133v34.133c0,4.713-3.82,8.533-8.533,8.533h-17.067
				c-4.713,0-8.533-3.821-8.533-8.533V7.533z"/>
			<path style="fill:#E3E7F2;" d="M195.267,7.533H229.4v34.133c0,4.713-3.821,8.533-8.533,8.533H203.8
				c-4.713,0-8.533-3.821-8.533-8.533V7.533z"/>
			<path style="fill:#E3E7F2;" d="M50.2,127h17.067c4.713,0,8.533,3.821,8.533,8.533v153.6c0,4.713-3.821,8.533-8.533,8.533H50.2
				c-4.713,0-8.533-3.821-8.533-8.533v-153.6C41.667,130.821,45.487,127,50.2,127z"/>
			<path style="fill:#E3E7F2;" d="M118.467,127h17.067c4.713,0,8.533,3.821,8.533,8.533v153.6c0,4.713-3.821,8.533-8.533,8.533
				h-17.067c-4.713,0-8.533-3.821-8.533-8.533v-153.6C109.933,130.821,113.754,127,118.467,127z"/>
		</g>
		<g>
			<circle style="fill:#A4C2F7;" cx="58.733" cy="348.867" r="17.067"/>
			<path style="fill:#A4C2F7;" d="M84.333,408.6h34.133c4.713,0,8.533,3.82,8.533,8.533v34.133c0,4.713-3.821,8.533-8.533,8.533
				H84.333c-4.713,0-8.533-3.82-8.533-8.533v-34.133C75.8,412.421,79.621,408.6,84.333,408.6z"/>
		</g>
		<g>
			<path style="fill:#E3E7F2;" d="M118.467,331.8h17.067c4.713,0,8.533,3.82,8.533,8.533V357.4c0,4.713-3.821,8.533-8.533,8.533
				h-17.067c-4.713,0-8.533-3.82-8.533-8.533v-17.067C109.933,335.621,113.754,331.8,118.467,331.8z"/>
			<rect x="229.4" y="118.467" style="fill:#E3E7F2;" width="34.133" height="85.333"/>
		</g>
		<g>
			<path style="fill:#A4C2F7;" d="M195.267,118.467H229.4V203.8h-25.6c-4.707-0.014-8.519-3.826-8.533-8.533V118.467z"/>
			<path style="fill:#A4C2F7;" d="M297.667,118.467v76.8c-0.014,4.707-3.826,8.519-8.533,8.533h-25.6v-85.333H297.667z"/>
			<rect x="476.867" y="289.133" style="fill:#A4C2F7;" width="25.6" height="34.133"/>
		</g>
		<g>
			<path style="fill:#E3E7F2;" d="M476.867,289.133v34.133h-8.533v42.667c-0.014,4.707-3.826,8.519-8.533,8.533H306.2
				c-4.707-0.014-8.519-3.826-8.533-8.533V246.467c0.014-4.707,3.826-8.519,8.533-8.533h153.6c4.707,0.014,8.519,3.826,8.533,8.533
				v42.667H476.867z"/>
			<rect x="348.867" y="135.533" style="fill:#E3E7F2;" width="102.4" height="51.2"/>
			<path style="fill:#E3E7F2;" d="M186.733,237.933H255c4.713,0,8.533,3.821,8.533,8.533v119.467c0,4.713-3.821,8.533-8.533,8.533
				h-68.267c-4.713,0-8.533-3.82-8.533-8.533V246.467C178.2,241.754,182.021,237.933,186.733,237.933z"/>
		</g>
		<g>
			<path style="fill:#A4C2F7;" d="M169.667,408.6H459.8c4.713,0,8.533,3.82,8.533,8.533v34.133c0,4.713-3.82,8.533-8.533,8.533
				H169.667c-4.713,0-8.533-3.82-8.533-8.533v-34.133C161.133,412.421,164.954,408.6,169.667,408.6z"/>
			<path style="fill:#A4C2F7;" d="M169.667,408.6H434.2c4.713,0,8.533,3.82,8.533,8.533v34.133c0,4.713-3.821,8.533-8.533,8.533
				H169.667c-4.713,0-8.533-3.82-8.533-8.533v-34.133C161.133,412.421,164.954,408.6,169.667,408.6z"/>
		</g>
		<path style="fill:#E3E7F2;" d="M127,7.533h34.133v51.2c0,4.713-3.821,8.533-8.533,8.533h-17.067c-4.713,0-8.533-3.821-8.533-8.533
			V7.533z"/>
		<g>
			<circle style="fill:#ECF0F1;" cx="195.267" cy="118.467" r="17.067"/>
			<circle style="fill:#ECF0F1;" cx="229.4" cy="118.467" r="17.067"/>
			<circle style="fill:#ECF0F1;" cx="263.533" cy="118.467" r="17.067"/>
			<circle style="fill:#ECF0F1;" cx="297.667" cy="118.467" r="17.067"/>
			<circle style="fill:#ECF0F1;" cx="348.867" cy="186.733" r="17.067"/>
			<circle style="fill:#ECF0F1;" cx="383" cy="186.733" r="17.067"/>
			<circle style="fill:#ECF0F1;" cx="417.133" cy="186.733" r="17.067"/>
			<circle style="fill:#ECF0F1;" cx="451.267" cy="186.733" r="17.067"/>
		</g>
	</g>
	<path style="fill:#FFFFFF;" d="M17.067,503.467h25.6c-4.707-0.014-8.519-3.826-8.533-8.533v-460.8
		c0.014-4.707,3.826-8.519,8.533-8.533h-25.6c-4.707,0.014-8.519,3.826-8.533,8.533v460.8
		C8.547,499.64,12.36,503.453,17.067,503.467z"/>
	<g>
		<polygon style="fill:#FFFFFF;" points="17.067,34.133 17.067,145.067 17.067,494.933 0,494.933 0,145.067 0,34.133 		"/>
		<g>
			<path style="fill:#428DFF;" d="M8.533,110.933c2.259-0.034,4.422-0.918,6.059-2.475c3.3-3.365,3.3-8.752,0-12.117l-1.279-1.025
				c-0.476-0.324-0.993-0.583-1.538-0.771c-0.484-0.246-1.003-0.417-1.538-0.509c-0.563-0.096-1.133-0.153-1.704-0.171
				c-2.259,0.031-4.423,0.915-6.059,2.475c-3.222,3.397-3.222,8.721,0,12.117c0.815,0.77,1.77,1.379,2.813,1.792
				C6.314,110.688,7.417,110.92,8.533,110.933z"/>
			<path style="fill:#428DFF;" d="M17.067,512h477.867c9.422-0.009,17.057-7.645,17.067-17.067v-460.8
				c-0.009-9.422-7.645-17.057-17.067-17.067h-17.067V8.533c0-4.713-3.821-8.533-8.533-8.533H435.2
				c-4.713,0-8.533,3.821-8.533,8.533v8.533H409.6V8.533C409.6,3.821,405.78,0,401.067,0H264.533C259.821,0,256,3.821,256,8.533
				v8.533h-17.067V8.533c0-4.713-3.821-8.533-8.533-8.533h-34.133c-4.713,0-8.533,3.821-8.533,8.533v8.533h-17.067V8.533
				c0-4.713-3.821-8.533-8.533-8.533H128c-4.713,0-8.533,3.821-8.533,8.533v8.533h-102.4C7.645,17.076,0.009,24.712,0,34.133v34.133
				C0,72.98,3.821,76.8,8.533,76.8s8.533-3.82,8.533-8.533V34.133h102.4v25.6c0.009,9.422,7.645,17.057,17.067,17.067v17.067
				c0,4.713,3.821,8.533,8.533,8.533c4.713,0,8.533-3.821,8.533-8.533V76.8c9.422-0.009,17.057-7.645,17.067-17.067v-25.6h17.067
				v8.533c0.009,9.422,7.645,17.057,17.067,17.067h17.067c9.422-0.009,17.057-7.645,17.067-17.067v-8.533H256v25.6
				c0.009,9.422,7.645,17.057,17.067,17.067h119.467c9.422-0.009,17.057-7.645,17.067-17.067v-25.6h17.067v8.533
				c0.009,9.422,7.645,17.057,17.067,17.067H460.8c9.422-0.009,17.057-7.645,17.067-17.067v-8.533h17.067V281.6h-17.067v-34.133
				c-0.009-9.422-7.645-17.057-17.067-17.067H307.2c-9.422,0.009-17.057,7.645-17.067,17.067v119.467
				c0.009,9.422,7.645,17.057,17.067,17.067h153.6c9.422-0.009,17.057-7.645,17.067-17.067V332.8h17.067v162.133H17.067v-358.4
				c0-4.713-3.821-8.533-8.533-8.533S0,131.821,0,136.533v358.4C0.009,504.355,7.645,511.991,17.067,512z M136.533,59.733V17.067
				H153.6l0.003,8.521L153.6,25.6l0.003,0.012l0.01,34.121H136.533z M204.8,42.667v-25.6h17.071l0.003,8.499l-0.007,0.034
				l0.007,0.034l0.006,17.033H204.8z M273.067,59.733V17.067h119.467l0.003,8.521l-0.003,0.012l0.003,0.012l0.01,34.121H273.067z
				 M443.733,42.667v-25.6h17.071l0.003,8.499L460.8,25.6l0.007,0.034l0.006,17.033H443.733z M469.333,315.733
				c-4.713,0-8.533,3.821-8.533,8.533v42.667H307.2V247.467h153.6v42.667c0,4.713,3.821,8.533,8.533,8.533h25.6v17.067H469.333z"/>
			<path style="fill:#428DFF;" d="M87.808,53.675c-3.313,3.34-3.298,8.73,0.032,12.052c3.331,3.322,8.721,3.322,12.052,0
				c3.331-3.322,3.345-8.712,0.032-12.052C96.498,50.53,91.235,50.53,87.808,53.675z"/>
			<path style="fill:#428DFF;" d="M48.725,65.792c3.3-3.365,3.3-8.752,0-12.117c-2.441-2.462-6.129-3.201-9.331-1.872
				c-3.202,1.329-5.281,4.464-5.261,7.931c-0.022,2.27,0.87,4.453,2.475,6.058c1.605,1.605,3.788,2.497,6.058,2.475
				C44.925,68.233,47.089,67.349,48.725,65.792z"/>
			<path style="fill:#428DFF;" d="M34.133,290.133c0.009,9.422,7.645,17.057,17.067,17.067h17.067
				c9.422-0.009,17.057-7.645,17.067-17.067v-153.6c-0.009-9.422-7.645-17.057-17.067-17.067H51.2
				c-9.422,0.009-17.057,7.645-17.067,17.067V290.133z M51.2,136.533h17.067l0.012,153.6H51.2V136.533z"/>
			<path style="fill:#428DFF;" d="M136.533,119.467h-17.067c-9.422,0.009-17.057,7.645-17.067,17.067v153.6
				c0.009,9.422,7.645,17.057,17.067,17.067h17.067c9.422-0.009,17.057-7.645,17.067-17.067v-153.6
				C153.591,127.112,145.955,119.476,136.533,119.467z M119.467,290.133v-153.6h17.067l0.012,153.6H119.467z"/>
			<path style="fill:#428DFF;" d="M59.733,375.467c14.138,0,25.6-11.462,25.6-25.6c0-14.138-11.462-25.6-25.6-25.6
				s-25.6,11.462-25.6,25.6C34.149,363.999,45.601,375.451,59.733,375.467z M59.733,341.333c4.713,0,8.533,3.821,8.533,8.533
				c0,4.713-3.821,8.533-8.533,8.533s-8.533-3.821-8.533-8.533C51.206,345.156,55.023,341.339,59.733,341.333z"/>
			<path style="fill:#428DFF;" d="M68.267,418.133v34.133c0.009,9.422,7.645,17.057,17.067,17.067h34.133
				c9.422-0.009,17.057-7.645,17.067-17.067v-34.133c-0.009-9.422-7.645-17.057-17.067-17.067H85.333
				C75.912,401.076,68.276,408.712,68.267,418.133z M119.479,452.267H85.333v-34.133h34.133L119.479,452.267z"/>
			<path style="fill:#428DFF;" d="M153.6,341.333c-0.009-9.422-7.645-17.057-17.067-17.067h-17.067
				c-9.422,0.009-17.057,7.645-17.067,17.067V358.4c0.009,9.422,7.645,17.057,17.067,17.067h17.067
				c9.422-0.009,17.057-7.645,17.067-17.067V341.333z M119.467,358.4v-17.067h17.067l0.012,17.067H119.467z"/>
			<path style="fill:#428DFF;" d="M298.667,93.867c-6.319,0.02-12.404,2.394-17.067,6.658c-9.646-8.878-24.487-8.878-34.133,0
				c-9.646-8.878-24.487-8.878-34.133,0c-7.657-6.951-18.753-8.593-28.095-4.158c-9.342,4.436-15.083,14.072-14.536,24.399
				c0.547,10.327,7.273,19.303,17.031,22.728v52.773c0.009,9.422,7.645,17.057,17.067,17.067h85.333
				c9.422-0.009,17.057-7.645,17.067-17.067v-52.772c11.753-4.132,18.808-16.141,16.697-28.418S311.124,93.836,298.667,93.867z
				 M264.533,110.933c4.713,0,8.533,3.821,8.533,8.533c0,4.713-3.82,8.533-8.533,8.533S256,124.179,256,119.467
				C256.006,114.756,259.823,110.939,264.533,110.933z M238.933,143.494c3.151-1.119,6.05-2.847,8.533-5.086
				c2.483,2.239,5.383,3.966,8.533,5.085v52.773h-17.067V143.494z M230.4,110.933c4.713,0,8.533,3.821,8.533,8.533
				c0,4.713-3.821,8.533-8.533,8.533s-8.533-3.821-8.533-8.533C221.873,114.756,225.69,110.939,230.4,110.933z M196.267,110.933
				c4.713,0,8.533,3.821,8.533,8.533c0,4.713-3.821,8.533-8.533,8.533s-8.533-3.821-8.533-8.533
				C187.739,114.756,191.556,110.939,196.267,110.933z M204.8,143.494c3.151-1.119,6.05-2.847,8.533-5.086
				c2.483,2.239,5.383,3.966,8.533,5.085v52.773H204.8V143.494z M273.067,196.267v-52.772c3.151-1.119,6.05-2.847,8.533-5.086
				c2.483,2.239,5.383,3.966,8.533,5.085v52.773H273.067z M298.667,128c-4.713,0-8.533-3.821-8.533-8.533
				c0-4.713,3.82-8.533,8.533-8.533s8.533,3.821,8.533,8.533C307.194,124.177,303.377,127.994,298.667,128z"/>
			<path style="fill:#428DFF;" d="M324.946,276.308c0.187,0.544,0.447,1.062,0.771,1.538c0.341,0.425,0.683,0.85,1.025,1.279
				c3.365,3.3,8.752,3.3,12.117,0c0.366-0.405,0.707-0.833,1.021-1.279c0.324-0.476,0.583-0.993,0.771-1.538
				c0.245-0.485,0.418-1.003,0.512-1.537c0.098-0.563,0.155-1.133,0.171-1.704c0-4.713-3.82-8.533-8.533-8.533
				s-8.533,3.82-8.533,8.533c0.013,0.572,0.071,1.141,0.171,1.704C324.529,275.306,324.7,275.824,324.946,276.308z"/>
			<path style="fill:#428DFF;" d="M337.579,334.25c-0.476-0.324-0.993-0.583-1.538-0.771c-0.484-0.246-1.002-0.417-1.537-0.508
				c-1.663-0.348-3.393-0.171-4.95,0.508c-1.033,0.434-1.984,1.041-2.813,1.796c-3.3,3.365-3.3,8.752,0,12.117
				c0.83,0.752,1.781,1.358,2.813,1.792c1.027,0.438,2.13,0.67,3.246,0.683c0.571-0.016,1.141-0.073,1.704-0.171
				c0.535-0.095,1.053-0.268,1.537-0.513c0.544-0.187,1.062-0.447,1.538-0.771c0.425-0.337,0.85-0.679,1.279-1.021
				c3.3-3.365,3.3-8.752,0-12.117C338.429,334.933,338.004,334.592,337.579,334.25z"/>
			<path style="fill:#428DFF;" d="M431.954,265.213c-1.033,0.434-1.984,1.041-2.813,1.796c-1.559,1.635-2.443,3.799-2.475,6.059
				c0.014,0.572,0.071,1.141,0.171,1.704c0.091,0.535,0.263,1.053,0.508,1.537c0.187,0.544,0.447,1.062,0.771,1.538
				c0.341,0.425,0.683,0.85,1.025,1.279c0.83,0.752,1.781,1.358,2.813,1.792c1.027,0.438,2.13,0.67,3.246,0.683
				c2.259-0.034,4.422-0.918,6.059-2.475c0.366-0.405,0.707-0.833,1.021-1.279c0.324-0.476,0.583-0.993,0.771-1.538
				c0.245-0.485,0.418-1.003,0.512-1.537c0.098-0.563,0.155-1.133,0.171-1.705c-0.033-2.259-0.917-4.422-2.475-6.059
				C438.786,264.621,435.138,263.917,431.954,265.213z"/>
			<path style="fill:#428DFF;" d="M439.979,334.25c-0.476-0.324-0.993-0.583-1.538-0.771c-0.508-0.258-1.056-0.43-1.621-0.508
				c-2.781-0.506-5.636,0.35-7.679,2.304c-2.461,2.441-3.201,6.129-1.872,9.331c1.329,3.202,4.464,5.281,7.93,5.261
				c0.544-0.016,1.086-0.073,1.621-0.171c0.564-0.082,1.112-0.255,1.621-0.513c0.544-0.187,1.062-0.447,1.538-0.771
				c0.425-0.337,0.85-0.679,1.279-1.021c3.3-3.365,3.3-8.752,0-12.117C440.829,334.933,440.404,334.592,439.979,334.25z"/>
			<path style="fill:#428DFF;" d="M384,281.6c-4.713,0-8.533,3.821-8.533,8.533v34.133c0,4.713,3.821,8.533,8.533,8.533
				s8.533-3.82,8.533-8.533v-34.133C392.533,285.421,388.713,281.6,384,281.6z"/>
			<path style="fill:#428DFF;" d="M349.867,298.667H332.8c-4.713,0-8.533,3.82-8.533,8.533s3.82,8.533,8.533,8.533h17.067
				c4.713,0,8.533-3.82,8.533-8.533S354.579,298.667,349.867,298.667z"/>
			<path style="fill:#428DFF;" d="M435.2,298.667h-17.067c-4.713,0-8.533,3.82-8.533,8.533s3.82,8.533,8.533,8.533H435.2
				c4.713,0,8.533-3.82,8.533-8.533S439.913,298.667,435.2,298.667z"/>
			<path style="fill:#428DFF;" d="M452.267,128h-102.4c-4.713,0-8.533,3.821-8.533,8.533v27.172
				c-9.78,3.411-16.528,12.394-17.082,22.736c-0.554,10.343,5.196,19.995,14.556,24.431c9.359,4.437,20.471,2.778,28.127-4.198
				c9.646,8.878,24.487,8.878,34.133,0c9.646,8.878,24.487,8.878,34.133,0c7.657,6.951,18.753,8.593,28.095,4.157
				c9.342-4.436,15.083-14.072,14.536-24.399s-7.273-19.303-17.031-22.728v-27.172C460.8,131.821,456.98,128,452.267,128z
				 M443.733,145.067v18.639c-3.151,1.119-6.05,2.847-8.533,5.086c-9.646-8.878-24.487-8.878-34.133,0
				c-9.646-8.878-24.487-8.878-34.133,0c-2.483-2.239-5.383-3.967-8.533-5.086v-18.639H443.733z M349.867,196.267
				c-4.713,0-8.533-3.821-8.533-8.533c0-4.713,3.821-8.533,8.533-8.533c4.713,0,8.533,3.821,8.533,8.533
				C358.394,192.444,354.577,196.261,349.867,196.267z M384,196.267c-4.713,0-8.533-3.821-8.533-8.533
				c0-4.713,3.821-8.533,8.533-8.533s8.533,3.821,8.533,8.533C392.527,192.444,388.71,196.261,384,196.267z M418.133,196.267
				c-4.713,0-8.533-3.821-8.533-8.533c0-4.713,3.82-8.533,8.533-8.533s8.533,3.821,8.533,8.533
				C426.661,192.444,422.844,196.261,418.133,196.267z M452.267,196.267c-4.713,0-8.533-3.821-8.533-8.533
				c0-4.713,3.82-8.533,8.533-8.533s8.533,3.821,8.533,8.533C460.794,192.444,456.977,196.261,452.267,196.267z"/>
			<path style="fill:#428DFF;" d="M170.667,366.933c0.009,9.422,7.645,17.057,17.067,17.067H256
				c9.422-0.009,17.057-7.645,17.067-17.067V247.467c-0.009-9.422-7.645-17.057-17.067-17.067h-68.267
				c-9.422,0.009-17.057,7.645-17.067,17.067V366.933z M187.733,247.467H256l0.012,119.467h-68.279V247.467z"/>
			<path style="fill:#428DFF;" d="M226.646,265.983c-0.476-0.324-0.993-0.583-1.538-0.771c-0.484-0.246-1.002-0.417-1.537-0.508
				c-2.81-0.574-5.721,0.29-7.763,2.304c-1.559,1.635-2.443,3.799-2.475,6.059c0.014,0.572,0.071,1.141,0.171,1.704
				c0.091,0.535,0.263,1.053,0.508,1.537c0.187,0.544,0.447,1.062,0.771,1.538c0.341,0.425,0.683,0.85,1.025,1.279
				c1.636,1.558,3.8,2.441,6.059,2.475c0.571-0.016,1.141-0.073,1.704-0.171c0.535-0.095,1.053-0.268,1.537-0.513
				c0.544-0.187,1.062-0.447,1.538-0.771c0.425-0.337,0.85-0.679,1.279-1.021c0.341-0.429,0.683-0.854,1.021-1.279
				c0.324-0.476,0.583-0.993,0.771-1.538c0.245-0.485,0.418-1.003,0.513-1.537c0.098-0.563,0.155-1.133,0.171-1.704
				c-0.033-2.259-0.917-4.422-2.475-6.059C227.52,266.641,227.092,266.299,226.646,265.983z"/>
			<path style="fill:#428DFF;" d="M227.925,301.141c-0.429-0.341-0.854-0.683-1.279-1.025c-0.476-0.324-0.993-0.583-1.538-0.771
				c-0.484-0.246-1.002-0.417-1.537-0.508c-1.663-0.348-3.393-0.171-4.95,0.508c-2.139,0.784-3.824,2.469-4.608,4.608
				c-0.437,1.027-0.668,2.13-0.68,3.247c0.014,0.572,0.071,1.141,0.171,1.704c0.091,0.535,0.263,1.053,0.508,1.537
				c0.187,0.544,0.447,1.062,0.771,1.538c0.341,0.425,0.683,0.85,1.025,1.279c0.83,0.752,1.781,1.358,2.813,1.792
				c1.027,0.438,2.13,0.67,3.246,0.683c0.571-0.016,1.141-0.073,1.704-0.171c0.535-0.095,1.053-0.268,1.537-0.513
				c0.544-0.187,1.062-0.447,1.538-0.771c0.425-0.338,0.85-0.679,1.279-1.021c0.341-0.429,0.683-0.854,1.021-1.279
				c0.324-0.476,0.583-0.993,0.771-1.538c0.245-0.485,0.418-1.003,0.513-1.537c0.098-0.563,0.155-1.133,0.171-1.704
				c-0.013-1.116-0.245-2.219-0.683-3.246C229.283,302.922,228.677,301.971,227.925,301.141z"/>
			<path style="fill:#428DFF;" d="M226.646,334.25c-0.476-0.324-0.993-0.583-1.538-0.771c-0.484-0.246-1.002-0.417-1.537-0.508
				c-1.663-0.348-3.393-0.171-4.95,0.508c-1.033,0.434-1.984,1.041-2.813,1.796c-3.3,3.365-3.3,8.752,0,12.117
				c0.83,0.752,1.781,1.358,2.813,1.792c1.027,0.438,2.13,0.67,3.246,0.683c0.571-0.016,1.141-0.073,1.704-0.171
				c0.535-0.095,1.053-0.268,1.537-0.513c0.544-0.187,1.062-0.447,1.538-0.771c0.425-0.337,0.85-0.679,1.279-1.021
				c3.3-3.365,3.3-8.752,0-12.117C227.496,334.933,227.071,334.592,226.646,334.25z"/>
			<path style="fill:#428DFF;" d="M153.6,418.133v34.133c0.009,9.422,7.645,17.057,17.067,17.067H460.8
				c9.422-0.009,17.057-7.645,17.067-17.067v-34.133c-0.009-9.422-7.645-17.057-17.067-17.067H170.667
				C161.245,401.076,153.609,408.712,153.6,418.133z M460.813,452.267h-17.079v-8.533c0-4.713-3.821-8.533-8.533-8.533
				s-8.533,3.821-8.533,8.533v8.533H409.6v-8.533c0-4.713-3.821-8.533-8.533-8.533s-8.533,3.821-8.533,8.533v8.533h-17.067v-8.533
				c0-4.713-3.82-8.533-8.533-8.533s-8.533,3.821-8.533,8.533v8.533h-17.067v-8.533c0-4.713-3.82-8.533-8.533-8.533
				s-8.533,3.821-8.533,8.533v8.533H307.2v-8.533c0-4.713-3.82-8.533-8.533-8.533s-8.533,3.821-8.533,8.533v8.533h-17.067v-8.533
				c0-4.713-3.82-8.533-8.533-8.533S256,439.021,256,443.733v8.533h-17.067v-8.533c0-4.713-3.821-8.533-8.533-8.533
				s-8.533,3.821-8.533,8.533v8.533H204.8v-8.533c0-4.713-3.821-8.533-8.533-8.533s-8.533,3.821-8.533,8.533v8.533h-17.067v-34.133
				H460.8L460.813,452.267z"/>
			<path style="fill:#428DFF;" d="M36.608,475.392c3.365,3.3,8.752,3.3,12.117,0c0.752-0.831,1.358-1.783,1.792-2.817
				c0.438-1.026,0.67-2.127,0.683-3.242c-0.033-2.259-0.917-4.422-2.475-6.059c-0.816-0.772-1.772-1.382-2.817-1.796
				c-2.079-0.85-4.409-0.85-6.487,0c-1.054,0.393-2.013,1.005-2.813,1.796C33.308,466.639,33.308,472.027,36.608,475.392
				L36.608,475.392z"/>
		</g>
	</g>
</g>
<g>
</g>
<g>
</g>
<g>
</g>
<g>
</g>
<g>
</g>
<g>
</g>
<g>
</g>
<g>
</g>
<g>
</g>
<g>
</g>
<g>
</g>
<g>
</g>
<g>
</g>
<g>
</g>
<g>
</g>
</svg>
