<svg height="512pt" viewBox="0 0 512 512" width="512pt" xmlns="http://www.w3.org/2000/svg" xmlns:xlink="http://www.w3.org/1999/xlink"><linearGradient id="a" gradientTransform="matrix(469.332031 0 0 307.199219 8.535156 8.535156)" gradientUnits="userSpaceOnUse" x1=".091709" x2=".908291" y1="-.107472" y2="1.140111"><stop offset="0" stop-color="#d3dff2"/><stop offset=".172" stop-color="#d3dff2"/><stop offset=".2" stop-color="#d3dff2"/><stop offset=".2" stop-color="#dae2f2"/><stop offset=".201" stop-color="#ebeaf2"/><stop offset=".201" stop-color="#f6eff2"/><stop offset=".202" stop-color="#fdf2f2"/><stop offset=".205" stop-color="#fff3f2"/><stop offset=".252" stop-color="#fff3f2"/><stop offset=".26" stop-color="#fff3f2"/><stop offset=".26" stop-color="#d3dff2"/><stop offset=".397" stop-color="#d3dff2"/><stop offset=".42" stop-color="#d3dff2"/><stop offset=".42" stop-color="#dae2f2"/><stop offset=".421" stop-color="#ebeaf2"/><stop offset=".421" stop-color="#f6eff2"/><stop offset=".422" stop-color="#fdf2f2"/><stop offset=".425" stop-color="#fff3f2"/><stop offset=".489" stop-color="#fff3f2"/><stop offset=".5" stop-color="#fff3f2"/><stop offset=".5" stop-color="#f8f0f2"/><stop offset=".5" stop-color="#e7e8f2"/><stop offset=".5" stop-color="#dce3f2"/><stop offset=".5" stop-color="#d5e0f2"/><stop offset=".501" stop-color="#d3dff2"/><stop offset=".706" stop-color="#d3dff2"/><stop offset=".74" stop-color="#d3dff2"/><stop offset=".741" stop-color="#fff3f2"/><stop offset=".835" stop-color="#fff3f2"/><stop offset=".85" stop-color="#fff3f2"/><stop offset=".851" stop-color="#d3dff2"/></linearGradient><path d="m503.464844 25.601562v290.132813h-494.929688v-290.132813c.027344-9.414062 7.652344-17.039062 17.066406-17.066406h460.796876c9.414062.027344 17.039062 7.652344 17.066406 17.066406zm0 0" fill="#7facfa"/><path d="m503.464844 315.734375v68.265625c-.027344 9.414062-7.652344 17.039062-17.066406 17.066406h-460.796876c-9.414062-.027344-17.039062-7.652344-17.066406-17.066406v-68.265625zm0 0" fill="#a4c2f7"/><path d="m503.464844 486.398438v8.535156c0 4.710937-3.820313 8.53125-8.53125 8.53125h-85.332032c-4.714843 0-8.535156-3.820313-8.535156-8.53125v-8.535156c.035156-23.316407 15.824219-43.664063 38.398438-49.492188 4.175781-1.132812 8.476562-1.707031 12.800781-1.707031 28.261719.042969 51.160156 22.941406 51.199219 51.199219zm0 0" fill="#a4c2f7"/><path d="m110.933594 281.601562h392.53125v34.132813h-392.53125zm0 0" fill="#a4c2f7"/><path d="m110.933594 213.332031h392.53125v34.132813h-392.53125zm0 0" fill="#a4c2f7"/><path d="m110.933594 247.464844h392.53125v34.136718h-392.53125zm0 0" fill="#d4e1f4"/><path d="m477.867188 25.601562v290.132813h-469.332032v-290.132813c.027344-9.414062 7.652344-17.039062 17.066406-17.066406h435.199219c9.414063.027344 17.039063 7.652344 17.066407 17.066406zm0 0" fill="url(#a)"/><path d="m477.867188 315.734375v68.265625c-.027344 9.414062-7.652344 17.039062-17.066407 17.066406h-435.199219c-9.414062-.027344-17.039062-7.652344-17.066406-17.066406v-68.265625zm0 0" fill="#d4e1f4"/><path d="m477.867188 486.398438v8.535156c0 4.710937-3.820313 8.53125-8.535157 8.53125h-59.730469c-4.714843 0-8.535156-3.820313-8.535156-8.53125v-8.535156c.035156-23.316407 15.824219-43.664063 38.398438-49.492188 8.878906 2.1875 16.972656 6.792969 23.382812 13.3125 9.648438 9.5625 15.058594 22.597656 15.019532 36.179688zm0 0" fill="#d4e1f4"/><path d="m110.933594 281.601562h366.933594v34.132813h-366.933594zm0 0" fill="#d4e1f4"/><path d="m110.933594 213.332031h366.933594v34.132813h-366.933594zm0 0" fill="#d4e1f4"/><path d="m110.933594 247.464844h366.933594v34.136718h-366.933594zm0 0" fill="#e3e7f2"/><path d="m196.265625 392.535156h119.46875v68.265625h-119.46875zm0 0" fill="#a4c2f7"/><path d="m187.734375 452.265625h136.53125c18.851563 0 34.132813 15.28125 34.132813 34.132813v17.066406h-204.796876v-17.066406c0-18.851563 15.28125-34.132813 34.132813-34.132813zm0 0" fill="#d4e1f4"/><path d="m256 42.667969h204.800781c4.710938 0 8.53125 3.820312 8.53125 8.53125v119.46875c0 4.710937-3.820312 8.53125-8.53125 8.53125h-204.800781c-4.710938 0-8.535156-3.820313-8.535156-8.53125v-119.46875c0-4.710938 3.824218-8.53125 8.535156-8.53125zm0 0" fill="#d4e1f4"/><path d="m51.199219 76.800781h17.066406c4.714844 0 8.535156 3.820313 8.535156 8.53125v17.066407c0 4.714843-3.820312 8.535156-8.535156 8.535156h-17.066406c-4.710938 0-8.53125-3.820313-8.53125-8.535156v-17.066407c0-4.710937 3.820312-8.53125 8.53125-8.53125zm0 0" fill="#d4e1f4"/><path d="m119.464844 76.800781h17.070312c4.710938 0 8.53125 3.820313 8.53125 8.53125v17.066407c0 4.714843-3.820312 8.535156-8.53125 8.535156h-17.070312c-4.710938 0-8.53125-3.820313-8.53125-8.535156v-17.066407c0-4.710937 3.820312-8.53125 8.53125-8.53125zm0 0" fill="#d4e1f4"/><path d="m187.734375 76.800781h17.066406c4.710938 0 8.53125 3.820313 8.53125 8.53125v17.066407c0 4.714843-3.820312 8.535156-8.53125 8.535156h-17.066406c-4.714844 0-8.535156-3.820313-8.535156-8.535156v-17.066407c0-4.710937 3.820312-8.53125 8.535156-8.53125zm0 0" fill="#d4e1f4"/><path d="m51.199219 145.066406h17.066406c4.714844 0 8.535156 3.820313 8.535156 8.535156v17.066407c0 4.710937-3.820312 8.53125-8.535156 8.53125h-17.066406c-4.710938 0-8.53125-3.820313-8.53125-8.53125v-17.066407c0-4.714843 3.820312-8.535156 8.53125-8.535156zm0 0" fill="#d4e1f4"/><path d="m119.464844 145.066406h17.070312c4.710938 0 8.53125 3.820313 8.53125 8.535156v17.066407c0 4.710937-3.820312 8.53125-8.53125 8.53125h-17.070312c-4.710938 0-8.53125-3.820313-8.53125-8.53125v-17.066407c0-4.714843 3.820312-8.535156 8.53125-8.535156zm0 0" fill="#d4e1f4"/><path d="m187.734375 145.066406h17.066406c4.710938 0 8.53125 3.820313 8.53125 8.535156v17.066407c0 4.710937-3.820312 8.53125-8.53125 8.53125h-17.066406c-4.714844 0-8.535156-3.820313-8.535156-8.53125v-17.066407c0-4.714843 3.820312-8.535156 8.535156-8.535156zm0 0" fill="#d4e1f4"/><path d="m426.667969 110.933594c0 37.703125-30.566407 68.265625-68.269531 68.265625-37.699219 0-68.265626-30.5625-68.265626-68.265625s30.566407-68.265625 68.265626-68.265625c37.703124 0 68.269531 30.5625 68.269531 68.265625zm0 0" fill="#a4c2f7"/><path d="m341.332031 84.335938v53.195312c0 1.539062.828125 2.957031 2.164063 3.714844 1.335937.757812 2.980468.738281 4.296875-.054688l44.375-26.597656c1.285156-.769531 2.074219-2.160156 2.074219-3.660156s-.789063-2.890625-2.074219-3.660156l-44.375-26.597657c-1.316407-.792969-2.960938-.8125-4.296875-.054687-1.335938.757812-2.164063 2.175781-2.164063 3.714844zm0 0" fill="#d4e1f4"/><path d="m8.535156 281.601562h102.398438v34.132813h-102.398438zm0 0" fill="#d4e1f4"/><path d="m8.535156 247.464844h102.398438v34.136718h-102.398438zm0 0" fill="#e3e7f2"/><path d="m8.535156 213.332031h102.398438v34.132813h-102.398438zm0 0" fill="#d4e1f4"/><path d="m179.199219 486.398438c0-18.851563 15.28125-34.132813 34.132812-34.132813h8.535157v-51.199219h-25.601563v51.199219h-8.53125c-18.851563 0-34.132813 15.28125-34.132813 34.132813v17.066406h25.597657zm0 0" fill="#fff"/><path d="m25.601562 401.066406h25.597657c-9.414063-.027344-17.039063-7.652344-17.066407-17.066406v-358.398438c.027344-9.414062 7.652344-17.039062 17.066407-17.066406h-25.597657c-9.414062.027344-17.039062 7.652344-17.066406 17.066406v358.398438c.027344 9.414062 7.652344 17.039062 17.066406 17.066406zm0 0" fill="#fff"/><path d="m17.066406 25.601562v290.132813h-17.066406v-290.132813zm0 0" fill="#fff"/><g fill="#428dff"><path d="m8.535156 102.398438c2.257813-.03125 4.421875-.914063 6.058594-2.472657 3.296875-3.367187 3.296875-8.753906 0-12.117187l-1.28125-1.023438c-.476562-.324218-.992188-.582031-1.535156-.769531-.484375-.246094-1.003906-.417969-1.539063-.511719-.5625-.09375-1.132812-.152344-1.703125-.171875-2.261718.035157-4.425781.917969-6.058594 2.476563-.773437.816406-1.382812 1.769531-1.792968 2.816406-1.289063 3.183594-.5859378 6.824219 1.792968 9.300781.8125.769531 1.769532 1.378907 2.8125 1.792969 1.027344.4375 2.128907.667969 3.246094.679688zm0 0"/><path d="m486.398438 0h-460.796876c-14.140624 0-25.601562 11.460938-25.601562 25.601562v34.132813c0 4.710937 3.820312 8.53125 8.535156 8.53125 4.710938 0 8.53125-3.820313 8.53125-8.53125v-34.132813c0-4.714843 3.820313-8.535156 8.535156-8.535156h460.796876c4.714843 0 8.535156 3.820313 8.535156 8.535156v179.199219h-477.867188v-76.800781c0-4.710938-3.820312-8.535156-8.53125-8.535156-4.714844 0-8.535156 3.824218-8.535156 8.535156v256c0 14.136719 11.460938 25.601562 25.601562 25.601562h162.132813v34.132813c-23.554687.027344-42.640625 19.113281-42.667969 42.664063v17.066406c0 4.714844 3.820313 8.535156 8.535156 8.535156h204.796876c4.714843 0 8.535156-3.820312 8.535156-8.535156v-17.066406c-.027344-23.550782-19.113282-42.636719-42.667969-42.664063v-34.132813h162.132813c14.140624 0 25.601562-11.464843 25.601562-25.601562v-358.398438c0-14.140624-11.460938-25.601562-25.601562-25.601562zm8.535156 273.066406h-375.46875v-17.066406h375.46875zm-392.535156 0h-85.332032v-17.066406h85.332032zm-85.332032 17.066406h85.332032v17.066407h-85.332032zm102.398438 0h375.46875v17.066407h-375.46875zm375.46875-51.199218h-375.46875v-17.066406h375.46875zm-392.535156-17.066406v17.066406h-85.332032v-17.066406zm247.46875 264.53125v8.535156h-187.734376v-8.535156c0-14.136719 11.460938-25.597657 25.601563-25.597657h136.53125c14.140625 0 25.601563 11.460938 25.601563 25.597657zm-42.667969-42.664063h-102.398438v-34.132813h102.398438zm187.734375-59.734375c0 4.710938-3.820313 8.535156-8.535156 8.535156h-460.796876c-4.714843 0-8.535156-3.824218-8.535156-8.535156v-59.734375h477.867188zm0 0"/><path d="m460.800781 187.734375c9.425781 0 17.066407-7.640625 17.066407-17.066406v-119.46875c0-9.425781-7.640626-17.066407-17.066407-17.066407h-204.800781c-9.425781 0-17.066406 7.640626-17.066406 17.066407v119.46875c0 9.425781 7.640625 17.066406 17.066406 17.066406zm-162.132812-76.800781c0-32.988282 26.742187-59.734375 59.730469-59.734375 32.992187 0 59.734374 26.746093 59.734374 59.734375 0 32.988281-26.742187 59.734375-59.734374 59.734375-32.972657-.039063-59.695313-26.761719-59.730469-59.734375zm162.132812-59.734375v119.46875h-54.238281c18.105469-14.542969 28.640625-36.511719 28.640625-59.734375s-10.535156-45.191406-28.640625-59.734375zm-204.800781 0h54.238281c-18.105469 14.542969-28.640625 36.511719-28.640625 59.734375s10.535156 45.191406 28.640625 59.734375h-54.238281zm0 0"/><path d="m34.132812 102.398438c0 9.425781 7.640626 17.066406 17.066407 17.066406h17.066406c9.425781 0 17.066406-7.640625 17.066406-17.066406v-17.066407c0-9.425781-7.640625-17.066406-17.066406-17.066406h-17.066406c-9.425781 0-17.066407 7.640625-17.066407 17.066406zm17.066407-17.066407h17.066406v17.066407h-17.066406zm0 0"/><path d="m102.398438 85.332031v17.066407c0 9.425781 7.640624 17.066406 17.066406 17.066406h17.070312c9.425782 0 17.066406-7.640625 17.066406-17.066406v-17.066407c0-9.425781-7.640624-17.066406-17.066406-17.066406h-17.070312c-9.425782 0-17.066406 7.640625-17.066406 17.066406zm34.136718 17.066407h-17.070312v-17.066407h17.070312zm0 0"/><path d="m221.867188 85.332031c0-9.425781-7.640626-17.066406-17.066407-17.066406h-17.066406c-9.425781 0-17.066406 7.640625-17.066406 17.066406v17.066407c0 9.425781 7.640625 17.066406 17.066406 17.066406h17.066406c9.425781 0 17.066407-7.640625 17.066407-17.066406zm-34.132813 17.066407v-17.066407h17.066406v17.066407zm0 0"/><path d="m34.132812 170.667969c0 9.425781 7.640626 17.066406 17.066407 17.066406h17.066406c9.425781 0 17.066406-7.640625 17.066406-17.066406v-17.066407c0-9.425781-7.640625-17.066406-17.066406-17.066406h-17.066406c-9.425781 0-17.066407 7.640625-17.066407 17.066406zm17.066407-17.066407h17.066406v17.066407h-17.066406zm0 0"/><path d="m136.535156 136.535156h-17.070312c-9.425782 0-17.066406 7.640625-17.066406 17.066406v17.066407c0 9.425781 7.640624 17.066406 17.066406 17.066406h17.070312c9.425782 0 17.066406-7.640625 17.066406-17.066406v-17.066407c0-9.425781-7.640624-17.066406-17.066406-17.066406zm-17.070312 34.132813v-17.066407h17.070312v17.066407zm0 0"/><path d="m204.800781 136.535156h-17.066406c-9.425781 0-17.066406 7.640625-17.066406 17.066406v17.066407c0 9.425781 7.640625 17.066406 17.066406 17.066406h17.066406c9.425781 0 17.066407-7.640625 17.066407-17.066406v-17.066407c0-9.425781-7.640626-17.066406-17.066407-17.066406zm-17.066406 34.132813v-17.066407h17.066406v17.066407zm0 0"/><path d="m51.199219 51.199219c4.714843 0 8.535156-3.820313 8.535156-8.53125 0-4.714844-3.820313-8.535157-8.535156-8.535157h-8.53125c-4.714844 0-8.535157 3.820313-8.535157 8.535157 0 4.710937 3.820313 8.53125 8.535157 8.53125zm0 0"/><path d="m93.867188 34.132812h-8.535157c-4.710937 0-8.53125 3.820313-8.53125 8.535157 0 4.710937 3.820313 8.53125 8.53125 8.53125h8.535157c4.710937 0 8.53125-3.820313 8.53125-8.53125 0-4.714844-3.820313-8.535157-8.53125-8.535157zm0 0"/><path d="m136.535156 51.199219c4.710938 0 8.53125-3.820313 8.53125-8.53125 0-4.714844-3.820312-8.535157-8.53125-8.535157h-8.535156c-4.710938 0-8.535156 3.820313-8.535156 8.535157 0 4.710937 3.824218 8.53125 8.535156 8.53125zm0 0"/><path d="m179.199219 34.132812h-8.53125c-4.714844 0-8.535157 3.820313-8.535157 8.535157 0 4.710937 3.820313 8.53125 8.535157 8.53125h8.53125c4.714843 0 8.535156-3.820313 8.535156-8.53125 0-4.714844-3.820313-8.535157-8.535156-8.535157zm0 0"/><path d="m406.757812 110.933594c0-2.996094-1.570312-5.769532-4.136718-7.3125l-56.894532-34.132813c-2.632812-1.585937-5.917968-1.628906-8.59375-.113281-2.675781 1.511719-4.332031 4.351562-4.332031 7.425781v68.265625c0 3.074219 1.65625 5.910156 4.332031 7.425782 2.675782 1.515624 5.960938 1.472656 8.59375-.113282l56.894532-34.132812c2.566406-1.542969 4.136718-4.316406 4.136718-7.3125zm-56.890624 19.0625v-38.125l31.777343 19.0625zm0 0"/><path d="m238.933594 366.933594h34.132812c4.714844 0 8.535156-3.820313 8.535156-8.535156 0-4.710938-3.820312-8.53125-8.535156-8.53125h-34.132812c-4.714844 0-8.535156 3.820312-8.535156 8.53125 0 4.714843 3.820312 8.535156 8.535156 8.535156zm0 0"/><path d="m452.265625 426.667969c-32.972656.035156-59.695313 26.757812-59.730469 59.730469v8.535156c0 9.425781 7.640625 17.066406 17.066406 17.066406h85.332032c9.425781 0 17.066406-7.640625 17.066406-17.066406v-8.535156c-.039062-32.972657-26.757812-59.695313-59.734375-59.730469zm42.667969 68.265625h-85.332032v-8.535156c.023438-20.265626 14.28125-37.730469 34.132813-41.8125v16.214843c0 4.710938 3.820313 8.53125 8.53125 8.53125 4.714844 0 8.535156-3.820312 8.535156-8.53125v-16.214843c19.851563 4.082031 34.105469 21.546874 34.132813 41.8125zm0 0"/></g></svg>