<?xml version="1.0" encoding="iso-8859-1"?>
<!-- Generator: Adobe Illustrator 19.0.0, SVG Export Plug-In . SVG Version: 6.00 Build 0)  -->
<svg version="1.1" id="Capa_1" xmlns="http://www.w3.org/2000/svg" xmlns:xlink="http://www.w3.org/1999/xlink" x="0px" y="0px"
	 viewBox="0 0 512.001 512.001" style="enable-background:new 0 0 512.001 512.001;" xml:space="preserve">
<g>
	<g transform="translate(1 1)">
		<path style="fill:#A4C2F7;" d="M24.601,75.8h170.667c9.426,0,17.067,7.641,17.067,17.067v324.267
			c0,9.426-7.641,17.067-17.067,17.067H24.601c-9.426,0-17.067-7.641-17.067-17.067V92.867C7.534,83.441,15.175,75.8,24.601,75.8z"
			/>
		<path style="fill:#E3E7F2;" d="M24.601,75.8h145.067c9.426,0,17.067,7.641,17.067,17.067v324.267
			c0,9.426-7.641,17.067-17.067,17.067H24.601c-9.426,0-17.067-7.641-17.067-17.067V92.867C7.534,83.441,15.175,75.8,24.601,75.8z"
			/>
		<path style="fill:#A4C2F7;" d="M212.334,212.334v204.8c-0.028,9.414-7.652,17.039-17.067,17.067H24.601
			c-9.414-0.028-17.039-7.652-17.067-17.067v-204.8l77.909,35.413h48.981l52.309-23.808L212.334,212.334z"/>
		<g>
			<path style="fill:#E3E7F2;" d="M186.734,223.939v193.195c-0.028,9.414-7.653,17.039-17.067,17.067H24.601
				c-9.414-0.028-17.039-7.652-17.067-17.067V214.126l52.309,23.808l74.581,9.813L186.734,223.939z"/>
			<rect x="391.534" y="92.867" style="fill:#E3E7F2;" width="51.2" height="51.157"/>
			<rect x="391.534" y="272.067" style="fill:#E3E7F2;" width="51.2" height="51.2"/>
			<rect x="391.534" y="451.267" style="fill:#E3E7F2;" width="51.2" height="51.2"/>
			<circle style="fill:#E3E7F2;" cx="109.934" cy="255" r="25.6"/>
			<path style="fill:#E3E7F2;" d="M50.201,109.934h119.467c4.713,0,8.533,3.821,8.533,8.533v25.6c0,4.713-3.821,8.533-8.533,8.533
				H50.201c-4.713,0-8.533-3.821-8.533-8.533v-25.6C41.667,113.754,45.488,109.934,50.201,109.934z"/>
		</g>
		<g>
			<path style="fill:#A4C2F7;" d="M502.467,16.067v85.248c0.008,2.266-0.889,4.441-2.491,6.043
				c-1.602,1.602-3.777,2.499-6.043,2.491h-153.6c-2.266,0.008-4.441-0.889-6.043-2.491c-1.602-1.602-2.499-3.777-2.491-6.043
				V16.067c0.014-4.707,3.826-8.519,8.533-8.533h153.6C498.641,7.548,502.453,11.36,502.467,16.067z"/>
			<path style="fill:#A4C2F7;" d="M502.467,195.352V280.6c-0.014,4.707-3.826,8.519-8.533,8.533h-153.6
				c-4.707-0.014-8.519-3.826-8.533-8.533v-85.248c-0.008-2.266,0.889-4.441,2.491-6.043s3.777-2.499,6.043-2.491h153.6
				c2.266-0.008,4.441,0.889,6.043,2.491S502.475,193.087,502.467,195.352z"/>
			<path style="fill:#A4C2F7;" d="M502.467,374.552V459.8c-0.014,4.707-3.826,8.519-8.533,8.533h-153.6
				c-4.707-0.014-8.519-3.826-8.533-8.533v-85.248c-0.008-2.266,0.889-4.441,2.491-6.043c1.602-1.602,3.777-2.499,6.043-2.491h153.6
				c2.266-0.008,4.441,0.889,6.043,2.491C501.579,370.112,502.475,372.287,502.467,374.552z"/>
		</g>
		<g>
			
				<linearGradient id="SVGID_1_" gradientUnits="userSpaceOnUse" x1="-49.5706" y1="650.7217" x2="-48.7524" y2="649.5616" gradientTransform="matrix(145.0668 0 0 -102.3147 7536.0425 66577.7656)">
				<stop  offset="0" style="stop-color:#D3DFF2"/>
				<stop  offset="0.1717" style="stop-color:#D3DFF2"/>
				<stop  offset="0.2" style="stop-color:#D3DFF2"/>
				<stop  offset="0.2002" style="stop-color:#DAE2F2"/>
				<stop  offset="0.2007" style="stop-color:#EBEAF2"/>
				<stop  offset="0.2014" style="stop-color:#F6EFF2"/>
				<stop  offset="0.2023" style="stop-color:#FDF2F2"/>
				<stop  offset="0.205" style="stop-color:#FFF3F2"/>
				<stop  offset="0.2522" style="stop-color:#FFF3F2"/>
				<stop  offset="0.26" style="stop-color:#FFF3F2"/>
				<stop  offset="0.26" style="stop-color:#D3DFF2"/>
				<stop  offset="0.3974" style="stop-color:#D3DFF2"/>
				<stop  offset="0.42" style="stop-color:#D3DFF2"/>
				<stop  offset="0.4202" style="stop-color:#DAE2F2"/>
				<stop  offset="0.4207" style="stop-color:#EBEAF2"/>
				<stop  offset="0.4214" style="stop-color:#F6EFF2"/>
				<stop  offset="0.4223" style="stop-color:#FDF2F2"/>
				<stop  offset="0.425" style="stop-color:#FFF3F2"/>
				<stop  offset="0.4894" style="stop-color:#FFF3F2"/>
				<stop  offset="0.5" style="stop-color:#FFF3F2"/>
				<stop  offset="0.5" style="stop-color:#F8F0F2"/>
				<stop  offset="0.5001" style="stop-color:#E7E8F2"/>
				<stop  offset="0.5003" style="stop-color:#DCE3F2"/>
				<stop  offset="0.5005" style="stop-color:#D5E0F2"/>
				<stop  offset="0.501" style="stop-color:#D3DFF2"/>
				<stop  offset="0.7062" style="stop-color:#D3DFF2"/>
				<stop  offset="0.74" style="stop-color:#D3DFF2"/>
				<stop  offset="0.741" style="stop-color:#FFF3F2"/>
				<stop  offset="0.8346" style="stop-color:#FFF3F2"/>
				<stop  offset="0.85" style="stop-color:#FFF3F2"/>
				<stop  offset="0.851" style="stop-color:#D3DFF2"/>
			</linearGradient>
			<path style="fill:url(#SVGID_1_);" d="M476.867,16.067v85.248c0.008,2.266-0.889,4.441-2.491,6.043
				c-1.602,1.602-3.777,2.499-6.043,2.491h-128c-2.266,0.008-4.441-0.889-6.043-2.491c-1.602-1.602-2.499-3.777-2.491-6.043V16.067
				c0.014-4.707,3.826-8.519,8.533-8.533h128C473.041,7.548,476.853,11.36,476.867,16.067z"/>
			
				<linearGradient id="SVGID_2_" gradientUnits="userSpaceOnUse" x1="-49.5705" y1="650.7218" x2="-48.7523" y2="649.5617" gradientTransform="matrix(145.0668 0 0 -102.3147 7536.0425 66757.0469)">
				<stop  offset="0" style="stop-color:#D3DFF2"/>
				<stop  offset="0.1717" style="stop-color:#D3DFF2"/>
				<stop  offset="0.2" style="stop-color:#D3DFF2"/>
				<stop  offset="0.2002" style="stop-color:#DAE2F2"/>
				<stop  offset="0.2007" style="stop-color:#EBEAF2"/>
				<stop  offset="0.2014" style="stop-color:#F6EFF2"/>
				<stop  offset="0.2023" style="stop-color:#FDF2F2"/>
				<stop  offset="0.205" style="stop-color:#FFF3F2"/>
				<stop  offset="0.2522" style="stop-color:#FFF3F2"/>
				<stop  offset="0.26" style="stop-color:#FFF3F2"/>
				<stop  offset="0.26" style="stop-color:#D3DFF2"/>
				<stop  offset="0.3974" style="stop-color:#D3DFF2"/>
				<stop  offset="0.42" style="stop-color:#D3DFF2"/>
				<stop  offset="0.4202" style="stop-color:#DAE2F2"/>
				<stop  offset="0.4207" style="stop-color:#EBEAF2"/>
				<stop  offset="0.4214" style="stop-color:#F6EFF2"/>
				<stop  offset="0.4223" style="stop-color:#FDF2F2"/>
				<stop  offset="0.425" style="stop-color:#FFF3F2"/>
				<stop  offset="0.4894" style="stop-color:#FFF3F2"/>
				<stop  offset="0.5" style="stop-color:#FFF3F2"/>
				<stop  offset="0.5" style="stop-color:#F8F0F2"/>
				<stop  offset="0.5001" style="stop-color:#E7E8F2"/>
				<stop  offset="0.5003" style="stop-color:#DCE3F2"/>
				<stop  offset="0.5005" style="stop-color:#D5E0F2"/>
				<stop  offset="0.501" style="stop-color:#D3DFF2"/>
				<stop  offset="0.7062" style="stop-color:#D3DFF2"/>
				<stop  offset="0.74" style="stop-color:#D3DFF2"/>
				<stop  offset="0.741" style="stop-color:#FFF3F2"/>
				<stop  offset="0.8346" style="stop-color:#FFF3F2"/>
				<stop  offset="0.85" style="stop-color:#FFF3F2"/>
				<stop  offset="0.851" style="stop-color:#D3DFF2"/>
			</linearGradient>
			<path style="fill:url(#SVGID_2_);" d="M476.867,195.352V280.6c-0.014,4.707-3.826,8.519-8.533,8.533h-128
				c-4.707-0.014-8.519-3.826-8.533-8.533v-85.248c-0.008-2.266,0.889-4.441,2.491-6.043s3.777-2.499,6.043-2.491h128
				c2.266-0.008,4.441,0.889,6.043,2.491S476.875,193.087,476.867,195.352z"/>
			
				<linearGradient id="SVGID_3_" gradientUnits="userSpaceOnUse" x1="-49.5705" y1="650.7218" x2="-48.7523" y2="649.5617" gradientTransform="matrix(145.0668 0 0 -102.3148 7536.0425 66936.2734)">
				<stop  offset="0" style="stop-color:#D3DFF2"/>
				<stop  offset="0.1717" style="stop-color:#D3DFF2"/>
				<stop  offset="0.2" style="stop-color:#D3DFF2"/>
				<stop  offset="0.2002" style="stop-color:#DAE2F2"/>
				<stop  offset="0.2007" style="stop-color:#EBEAF2"/>
				<stop  offset="0.2014" style="stop-color:#F6EFF2"/>
				<stop  offset="0.2023" style="stop-color:#FDF2F2"/>
				<stop  offset="0.205" style="stop-color:#FFF3F2"/>
				<stop  offset="0.2522" style="stop-color:#FFF3F2"/>
				<stop  offset="0.26" style="stop-color:#FFF3F2"/>
				<stop  offset="0.26" style="stop-color:#D3DFF2"/>
				<stop  offset="0.3974" style="stop-color:#D3DFF2"/>
				<stop  offset="0.42" style="stop-color:#D3DFF2"/>
				<stop  offset="0.4202" style="stop-color:#DAE2F2"/>
				<stop  offset="0.4207" style="stop-color:#EBEAF2"/>
				<stop  offset="0.4214" style="stop-color:#F6EFF2"/>
				<stop  offset="0.4223" style="stop-color:#FDF2F2"/>
				<stop  offset="0.425" style="stop-color:#FFF3F2"/>
				<stop  offset="0.4894" style="stop-color:#FFF3F2"/>
				<stop  offset="0.5" style="stop-color:#FFF3F2"/>
				<stop  offset="0.5" style="stop-color:#F8F0F2"/>
				<stop  offset="0.5001" style="stop-color:#E7E8F2"/>
				<stop  offset="0.5003" style="stop-color:#DCE3F2"/>
				<stop  offset="0.5005" style="stop-color:#D5E0F2"/>
				<stop  offset="0.501" style="stop-color:#D3DFF2"/>
				<stop  offset="0.7062" style="stop-color:#D3DFF2"/>
				<stop  offset="0.74" style="stop-color:#D3DFF2"/>
				<stop  offset="0.741" style="stop-color:#FFF3F2"/>
				<stop  offset="0.8346" style="stop-color:#FFF3F2"/>
				<stop  offset="0.85" style="stop-color:#FFF3F2"/>
				<stop  offset="0.851" style="stop-color:#D3DFF2"/>
			</linearGradient>
			<path style="fill:url(#SVGID_3_);" d="M476.867,374.552V459.8c-0.014,4.707-3.826,8.519-8.533,8.533h-128
				c-4.707-0.014-8.519-3.826-8.533-8.533v-85.248c-0.008-2.266,0.889-4.441,2.491-6.043c1.602-1.602,3.777-2.499,6.043-2.491h128
				c2.266-0.008,4.441,0.889,6.043,2.491C475.979,370.112,476.875,372.287,476.867,374.552z"/>
		</g>
		<g>
			<circle style="fill:#E3E7F2;" cx="272.067" cy="58.734" r="25.6"/>
			<circle style="fill:#E3E7F2;" cx="272.067" cy="255" r="25.6"/>
			<circle style="fill:#E3E7F2;" cx="272.067" cy="442.734" r="25.6"/>
		</g>
		<g>
			<path style="fill:#FFFFFF;" d="M24.601,434.2h25.6c-9.414-0.028-17.039-7.652-17.067-17.067V92.867
				c0.028-9.414,7.652-17.039,17.067-17.067h-25.6c-9.414,0.028-17.039,7.652-17.067,17.067v324.267
				C7.562,426.548,15.187,434.173,24.601,434.2z"/>
			<path style="fill:#FFFFFF;" d="M365.934,186.819l-25.6,0c-2.266-0.008-4.441,0.889-6.043,2.491
				c-1.602,1.602-2.499,3.777-2.491,6.043V280.6c0.014,4.707,3.826,8.519,8.533,8.533h25.6c-4.707-0.014-8.519-3.826-8.533-8.533
				v-85.248c-0.008-2.266,0.889-4.441,2.491-6.043C361.493,187.708,363.668,186.811,365.934,186.819z"/>
			<path style="fill:#FFFFFF;" d="M331.801,459.8c0.014,4.707,3.826,8.519,8.533,8.533h25.6c-4.707-0.014-8.519-3.826-8.533-8.533
				v-85.248c-0.008-2.266,0.889-4.441,2.491-6.043s3.777-2.499,6.043-2.491l-25.6,0c-2.266-0.008-4.441,0.889-6.043,2.491
				s-2.499,3.777-2.491,6.043V459.8z"/>
			<path style="fill:#FFFFFF;" d="M365.934,7.534h-25.6c-4.707,0.014-8.519,3.826-8.533,8.533v85.248
				c-0.008,2.266,0.889,4.441,2.491,6.043c1.602,1.602,3.777,2.499,6.043,2.491l25.6,0c-2.266,0.008-4.441-0.889-6.043-2.491
				c-1.602-1.602-2.499-3.777-2.491-6.043V16.067C357.415,11.36,361.227,7.548,365.934,7.534z"/>
		</g>
	</g>
	<g>
		<polygon style="fill:#FFFFFF;" points="0.001,418.134 0.001,307.2 0.001,93.867 17.067,93.867 17.067,307.2 17.067,418.134 		"/>
		<g>
			<path style="fill:#428DFF;" d="M5.292,357.721c0.484,0.246,1.002,0.417,1.537,0.508c0.563,0.096,1.133,0.153,1.704,0.171
				c2.259-0.031,4.423-0.915,6.059-2.475c3.221-3.397,3.221-8.72,0-12.117c-0.815-0.771-1.77-1.379-2.813-1.792
				c-1.027-0.438-2.13-0.67-3.246-0.683c-2.259,0.034-4.422,0.918-6.059,2.475c-3.3,3.365-3.3,8.752,0,12.117l1.279,1.025
				C4.231,357.275,4.748,357.534,5.292,357.721z"/>
			<path style="fill:#428DFF;" d="M170.667,102.4H51.201c-9.421,0.011-17.056,7.645-17.067,17.067v25.6
				c0.011,9.421,7.645,17.056,17.067,17.067h119.467c9.421-0.011,17.056-7.645,17.067-17.067v-25.6
				C187.723,110.046,180.089,102.411,170.667,102.4z M51.201,145.067v-25.6h119.467l0.009,25.6H51.201z"/>
			<path style="fill:#428DFF;" d="M93.867,409.6c4.713,0,8.533-3.821,8.533-8.533s-3.821-8.533-8.533-8.533H76.801
				c-4.713,0-8.533,3.82-8.533,8.533s3.82,8.533,8.533,8.533H93.867z"/>
			<path style="fill:#428DFF;" d="M145.067,409.6c4.713,0,8.533-3.821,8.533-8.533s-3.82-8.533-8.533-8.533h-17.067
				c-4.713,0-8.533,3.82-8.533,8.533s3.821,8.533,8.533,8.533H145.067z"/>
			<path style="fill:#428DFF;" d="M494.934,0h-153.6c-9.421,0.011-17.056,7.645-17.067,17.067V51.2h-18.278
				c-4.129-16.101-19.277-26.87-35.841-25.481c-16.564,1.389-29.706,14.531-31.095,31.095c-1.389,16.564,9.38,31.711,25.481,35.84
				v130.423c-11.947,3.112-21.276,12.442-24.388,24.388h-18.278v-153.6c-0.015-14.132-11.468-25.585-25.6-25.6H25.601
				c-14.132,0.015-25.585,11.468-25.6,25.6v221.867c0,4.713,3.821,8.533,8.533,8.533s8.533-3.821,8.533-8.533v-89.148l59.952,27.251
				c-0.047,0.73-0.219,1.423-0.219,2.165c0,18.851,15.282,34.133,34.133,34.133s34.133-15.282,34.133-34.133
				c0-0.741-0.172-1.435-0.219-2.165l59.952-27.251v191.548c-0.005,4.711-3.822,8.529-8.533,8.533H25.601
				c-4.711-0.005-8.529-3.822-8.533-8.533V384c0-4.713-3.821-8.533-8.533-8.533S0.001,379.288,0.001,384v34.133
				c0.015,14.132,11.468,25.585,25.6,25.6h170.667c14.132-0.015,25.585-11.468,25.6-25.6v-153.6h18.278
				c3.112,11.947,12.442,21.276,24.388,24.388v121.89c-16.101,4.129-26.87,19.277-25.481,35.841
				c1.389,16.564,14.531,29.706,31.095,31.095c16.564,1.389,31.712-9.38,35.841-25.481h18.278v8.533
				c0.011,9.421,7.645,17.056,17.067,17.067h42.667v17.067h-8.533c-4.713,0-8.533,3.821-8.533,8.533s3.821,8.533,8.533,8.533h85.333
				c4.713,0,8.533-3.82,8.533-8.533s-3.821-8.533-8.533-8.533h-8.533v-17.067h42.667c9.421-0.011,17.056-7.645,17.067-17.067
				v-85.288c-0.011-9.421-7.646-17.056-17.067-17.067h-153.6c-9.421,0.011-17.056,7.645-17.067,17.067V435.2h-18.278
				c-3.112-11.947-12.442-21.276-24.388-24.388v-121.89c11.947-3.112,21.276-12.442,24.388-24.388h18.278V281.6
				c0.011,9.421,7.645,17.056,17.067,17.067h42.667v17.067h-8.533c-4.713,0-8.533,3.821-8.533,8.533s3.821,8.533,8.533,8.533h85.333
				c4.713,0,8.533-3.82,8.533-8.533s-3.821-8.533-8.533-8.533h-8.533v-17.067h42.667c9.421-0.011,17.056-7.645,17.067-17.067
				v-85.288c-0.011-9.421-7.646-17.056-17.067-17.067h-153.6c-9.421,0.011-17.056,7.645-17.067,17.067v51.154h-18.278
				c-3.112-11.947-12.442-21.276-24.388-24.388V92.655c11.947-3.112,21.276-12.442,24.388-24.388h18.278v34.088
				c0.011,9.421,7.645,17.056,17.067,17.067h42.667v17.067h-8.533c-4.713,0-8.533,3.82-8.533,8.533c0,4.713,3.821,8.533,8.533,8.533
				h85.333c4.713,0,8.533-3.821,8.533-8.533c0-4.713-3.821-8.533-8.533-8.533h-8.533v-17.067h42.667
				c9.421-0.011,17.056-7.645,17.067-17.067V17.067C511.99,7.646,504.355,0.011,494.934,0z M110.934,273.067
				c-9.426,0-17.067-7.641-17.067-17.067c0-9.426,7.641-17.067,17.067-17.067s17.067,7.641,17.067,17.067
				C127.99,265.422,120.355,273.056,110.934,273.067z M139.542,237.502c-6.251-9.743-17.032-15.635-28.608-15.635
				s-22.357,5.892-28.608,15.635L17.067,207.84V93.867c0.005-4.711,3.822-8.529,8.533-8.533h170.667
				c4.711,0.005,8.529,3.822,8.533,8.533V207.84L139.542,237.502z M435.201,494.934h-34.133v-17.067h34.133V494.934z
				 M341.334,375.513h153.6l0.009,85.288H341.334V375.513z M435.201,315.734h-34.133v-17.067h34.133V315.734z M341.334,196.313
				h153.6l0.009,85.288H341.334V196.313z M290.134,443.734c0,9.426-7.641,17.067-17.067,17.067s-17.067-7.641-17.067-17.067
				c0-9.426,7.641-17.067,17.067-17.067C282.489,426.678,290.123,434.313,290.134,443.734z M290.134,256
				c0,9.426-7.641,17.067-17.067,17.067s-17.067-7.641-17.067-17.067c0-9.426,7.641-17.067,17.067-17.067
				C282.489,238.944,290.123,246.579,290.134,256z M273.067,76.8c-9.426,0-17.067-7.641-17.067-17.067s7.641-17.067,17.067-17.067
				s17.067,7.641,17.067,17.067C290.123,69.155,282.489,76.79,273.067,76.8z M435.201,136.488h-34.133v-17.067h34.133V136.488z
				 M443.734,102.355h-102.4V17.067h153.6l0.009,85.288H443.734z"/>
			<path style="fill:#428DFF;" d="M176.726,181.675c-0.429-0.341-0.854-0.683-1.279-1.025c-0.476-0.324-0.993-0.583-1.538-0.771
				c-0.484-0.246-1.002-0.417-1.537-0.508c-2.81-0.574-5.721,0.29-7.763,2.304c-0.754,0.828-1.362,1.78-1.796,2.813
				c-0.437,1.027-0.668,2.13-0.68,3.246c-0.022,2.27,0.87,4.453,2.475,6.058c1.605,1.605,3.788,2.497,6.058,2.475
				c0.571-0.016,1.141-0.073,1.704-0.171c0.535-0.095,1.053-0.268,1.537-0.512c0.544-0.187,1.062-0.447,1.538-0.771
				c0.425-0.338,0.85-0.679,1.279-1.021c1.557-1.637,2.441-3.8,2.475-6.058c-0.013-1.116-0.245-2.219-0.683-3.246
				C178.083,183.456,177.478,182.505,176.726,181.675z"/>
			<path style="fill:#428DFF;" d="M151.126,181.675c-0.429-0.341-0.854-0.683-1.279-1.025c-0.476-0.324-0.993-0.583-1.538-0.771
				c-0.484-0.246-1.002-0.417-1.537-0.508c-2.81-0.574-5.721,0.29-7.763,2.304c-0.754,0.828-1.362,1.78-1.796,2.813
				c-0.437,1.027-0.668,2.13-0.68,3.246c-0.022,2.27,0.87,4.453,2.475,6.058c1.605,1.605,3.788,2.497,6.058,2.475
				c0.571-0.016,1.141-0.073,1.704-0.171c0.535-0.095,1.053-0.268,1.537-0.512c0.544-0.187,1.062-0.447,1.538-0.771
				c0.425-0.338,0.85-0.679,1.279-1.021c1.557-1.637,2.441-3.8,2.475-6.058c-0.013-1.116-0.245-2.219-0.683-3.246
				C152.483,183.456,151.878,182.505,151.126,181.675z"/>
			<path style="fill:#428DFF;" d="M387.242,68.901c-3.187-1.242-6.805-0.544-9.3,1.796c-0.773,0.814-1.383,1.769-1.796,2.813
				c-0.436,1.027-0.667,2.13-0.679,3.246c-0.022,2.27,0.87,4.453,2.475,6.058c1.605,1.605,3.788,2.497,6.058,2.475
				c1.115-0.014,2.216-0.246,3.242-0.683c1.054-0.394,2.013-1.005,2.817-1.792c3.3-3.365,3.3-8.752,0-12.117
				C389.257,69.907,388.297,69.295,387.242,68.901z"/>
			<path style="fill:#428DFF;" d="M412.075,70.697c-3.313,3.34-3.298,8.73,0.032,12.052s8.721,3.322,12.052,0
				s3.345-8.712,0.033-12.052C420.765,67.552,415.502,67.552,412.075,70.697z"/>
			<path style="fill:#428DFF;" d="M449.022,68.901c-1.044,0.413-1.999,1.023-2.813,1.796c-3.3,3.365-3.3,8.752,0,12.117
				c0.815,0.771,1.77,1.379,2.813,1.792c2.067,0.911,4.421,0.911,6.487,0c1.044-0.414,1.999-1.022,2.817-1.792
				c3.3-3.365,3.3-8.752,0-12.117C455.853,68.31,452.205,67.606,449.022,68.901z"/>
			<path style="fill:#428DFF;" d="M384.001,264.534c1.115-0.014,2.216-0.246,3.242-0.683c1.054-0.394,2.013-1.005,2.817-1.792
				c3.3-3.365,3.3-8.752,0-12.117c-0.802-0.79-1.762-1.402-2.817-1.796c-3.187-1.242-6.805-0.544-9.3,1.796
				c-0.773,0.814-1.383,1.769-1.796,2.813c-0.436,1.027-0.667,2.13-0.679,3.246c-0.022,2.27,0.87,4.453,2.475,6.058
				C379.548,263.664,381.731,264.556,384.001,264.534z"/>
			<path style="fill:#428DFF;" d="M418.134,264.534c4.024-0.039,7.462-2.911,8.218-6.863c0.756-3.953-1.38-7.89-5.105-9.412
				c-3.726-1.522-8.007-0.205-10.235,3.146c-2.227,3.352-1.783,7.809,1.063,10.654C413.712,263.616,415.875,264.5,418.134,264.534z"
				/>
			<path style="fill:#428DFF;" d="M449.022,263.85c2.067,0.911,4.421,0.911,6.487,0c1.044-0.414,1.999-1.022,2.817-1.792
				c3.3-3.365,3.3-8.752,0-12.117c-3.397-3.221-8.72-3.221-12.117,0c-3.3,3.365-3.3,8.752,0,12.117
				C447.024,262.829,447.979,263.437,449.022,263.85z"/>
			<path style="fill:#428DFF;" d="M384.001,443.734c1.115-0.014,2.216-0.246,3.242-0.683c1.054-0.394,2.013-1.005,2.817-1.792
				c3.3-3.365,3.3-8.752,0-12.117c-0.802-0.79-1.762-1.402-2.817-1.796c-3.187-1.242-6.805-0.544-9.3,1.796
				c-0.773,0.814-1.383,1.769-1.796,2.813c-0.436,1.027-0.667,2.13-0.679,3.246c-0.022,2.27,0.87,4.453,2.475,6.058
				C379.548,442.864,381.731,443.756,384.001,443.734z"/>
			<path style="fill:#428DFF;" d="M418.134,443.734c4.024-0.039,7.462-2.911,8.218-6.863c0.756-3.953-1.38-7.89-5.105-9.412
				s-8.007-0.205-10.235,3.146c-2.227,3.352-1.783,7.809,1.063,10.654C413.712,442.816,415.875,443.7,418.134,443.734z"/>
			<path style="fill:#428DFF;" d="M449.022,443.05c2.067,0.911,4.421,0.911,6.487,0c1.044-0.414,1.999-1.022,2.817-1.792
				c3.3-3.365,3.3-8.752,0-12.117c-3.397-3.221-8.72-3.221-12.117,0c-3.3,3.365-3.3,8.752,0,12.117
				C447.024,442.029,447.979,442.637,449.022,443.05z"/>
		</g>
	</g>
</g>
<g>
</g>
<g>
</g>
<g>
</g>
<g>
</g>
<g>
</g>
<g>
</g>
<g>
</g>
<g>
</g>
<g>
</g>
<g>
</g>
<g>
</g>
<g>
</g>
<g>
</g>
<g>
</g>
<g>
</g>
</svg>
